<mxfile host="app.diagrams.net" agent="Mozilla/5.0 (Windows NT 10.0; Win64; x64) AppleWebKit/537.36 (KHTML, like Gecko) Chrome/136.0.0.0 Safari/537.36" version="27.0.6">
  <diagram name="Page-1" id="XBFmpDd5GI6fNW_chvTV">
    <mxGraphModel dx="3143" dy="753" grid="1" gridSize="10" guides="1" tooltips="1" connect="1" arrows="1" fold="1" page="1" pageScale="1" pageWidth="827" pageHeight="1169" math="0" shadow="0">
      <root>
        <mxCell id="0" />
        <mxCell id="1" parent="0" />
        <mxCell id="7SKIFd48QXLSBfqfKtb0-60" style="edgeStyle=orthogonalEdgeStyle;rounded=0;orthogonalLoop=1;jettySize=auto;html=1;" edge="1" parent="1" source="7SKIFd48QXLSBfqfKtb0-40" target="7SKIFd48QXLSBfqfKtb0-58">
          <mxGeometry relative="1" as="geometry" />
        </mxCell>
        <mxCell id="7SKIFd48QXLSBfqfKtb0-40" value="" style="rounded=0;whiteSpace=wrap;html=1;dashed=1;fillColor=#E6FFCC;" vertex="1" parent="1">
          <mxGeometry x="-503" y="239" width="180" height="360" as="geometry" />
        </mxCell>
        <mxCell id="7SKIFd48QXLSBfqfKtb0-67" style="edgeStyle=orthogonalEdgeStyle;rounded=0;orthogonalLoop=1;jettySize=auto;html=1;" edge="1" parent="1" source="7SKIFd48QXLSBfqfKtb0-6" target="7SKIFd48QXLSBfqfKtb0-35">
          <mxGeometry relative="1" as="geometry">
            <Array as="points">
              <mxPoint x="-840" y="760" />
              <mxPoint x="-680" y="760" />
            </Array>
          </mxGeometry>
        </mxCell>
        <mxCell id="7SKIFd48QXLSBfqfKtb0-6" value="" style="rounded=0;whiteSpace=wrap;html=1;dashed=1;fillColor=#E6FFCC;" vertex="1" parent="1">
          <mxGeometry x="-920" y="240" width="160" height="230" as="geometry" />
        </mxCell>
        <mxCell id="llhdRNOZYohhOxRvLzvJ-1" value="" style="rounded=0;whiteSpace=wrap;html=1;fillColor=#FFE6CC;" parent="1" vertex="1">
          <mxGeometry x="-70" y="1100" width="250" height="20" as="geometry" />
        </mxCell>
        <mxCell id="NUGtLv0-GDBaZmMCbuX2-55" style="edgeStyle=orthogonalEdgeStyle;rounded=0;orthogonalLoop=1;jettySize=auto;html=1;endArrow=none;startFill=0;dashed=1;" parent="1" source="NUGtLv0-GDBaZmMCbuX2-13" edge="1">
          <mxGeometry relative="1" as="geometry">
            <mxPoint x="280" y="360" as="targetPoint" />
          </mxGeometry>
        </mxCell>
        <mxCell id="NUGtLv0-GDBaZmMCbuX2-13" value="OA" style="rounded=0;whiteSpace=wrap;html=1;fillColor=#FFFFCC;" parent="1" vertex="1">
          <mxGeometry x="240" y="40" width="80" height="40" as="geometry" />
        </mxCell>
        <mxCell id="nSWta7cHLVQgfDduEso--1" style="edgeStyle=orthogonalEdgeStyle;rounded=0;orthogonalLoop=1;jettySize=auto;html=1;endArrow=none;startFill=0;dashed=1;" parent="1" source="nSWta7cHLVQgfDduEso--14" edge="1">
          <mxGeometry relative="1" as="geometry">
            <mxPoint x="440" y="360" as="targetPoint" />
          </mxGeometry>
        </mxCell>
        <mxCell id="NUGtLv0-GDBaZmMCbuX2-19" value=".37" style="rounded=0;whiteSpace=wrap;html=1;fillColor=#FFFFCC;" parent="1" vertex="1">
          <mxGeometry x="400" y="40" width="80" height="40" as="geometry" />
        </mxCell>
        <mxCell id="NUGtLv0-GDBaZmMCbuX2-23" value="跳转" style="endArrow=classic;html=1;rounded=0;exitX=0.5;exitY=0;exitDx=0;exitDy=0;" parent="1" source="nSWta7cHLVQgfDduEso--4" edge="1">
          <mxGeometry width="50" height="50" relative="1" as="geometry">
            <mxPoint x="280" y="110" as="sourcePoint" />
            <mxPoint x="440" y="110" as="targetPoint" />
          </mxGeometry>
        </mxCell>
        <mxCell id="NUGtLv0-GDBaZmMCbuX2-33" style="edgeStyle=orthogonalEdgeStyle;rounded=0;orthogonalLoop=1;jettySize=auto;html=1;endArrow=none;startFill=0;strokeColor=default;dashed=1;" parent="1" source="nSWta7cHLVQgfDduEso--9" edge="1">
          <mxGeometry relative="1" as="geometry">
            <mxPoint x="600" y="360" as="targetPoint" />
          </mxGeometry>
        </mxCell>
        <mxCell id="NUGtLv0-GDBaZmMCbuX2-31" value=".2" style="rounded=0;whiteSpace=wrap;html=1;fillColor=#FFFFCC;" parent="1" vertex="1">
          <mxGeometry x="560" y="40" width="80" height="40" as="geometry" />
        </mxCell>
        <mxCell id="NUGtLv0-GDBaZmMCbuX2-72" style="edgeStyle=orthogonalEdgeStyle;rounded=0;orthogonalLoop=1;jettySize=auto;html=1;" parent="1" source="NUGtLv0-GDBaZmMCbuX2-56" target="NUGtLv0-GDBaZmMCbuX2-60" edge="1">
          <mxGeometry relative="1" as="geometry">
            <Array as="points">
              <mxPoint x="1080" y="100" />
              <mxPoint x="1080" y="260" />
            </Array>
          </mxGeometry>
        </mxCell>
        <mxCell id="NUGtLv0-GDBaZmMCbuX2-73" style="edgeStyle=orthogonalEdgeStyle;rounded=0;orthogonalLoop=1;jettySize=auto;html=1;" parent="1" source="NUGtLv0-GDBaZmMCbuX2-56" target="NUGtLv0-GDBaZmMCbuX2-59" edge="1">
          <mxGeometry relative="1" as="geometry" />
        </mxCell>
        <mxCell id="NUGtLv0-GDBaZmMCbuX2-74" style="edgeStyle=orthogonalEdgeStyle;rounded=0;orthogonalLoop=1;jettySize=auto;html=1;entryX=0;entryY=0.5;entryDx=0;entryDy=0;" parent="1" source="NUGtLv0-GDBaZmMCbuX2-56" target="NUGtLv0-GDBaZmMCbuX2-58" edge="1">
          <mxGeometry relative="1" as="geometry" />
        </mxCell>
        <mxCell id="NUGtLv0-GDBaZmMCbuX2-56" value="@SpringBootApplication" style="rounded=0;whiteSpace=wrap;html=1;fillColor=#FFFFCC;" parent="1" vertex="1">
          <mxGeometry x="890" y="80" width="150" height="40" as="geometry" />
        </mxCell>
        <mxCell id="NUGtLv0-GDBaZmMCbuX2-58" value="@SpringBootConfiguration" style="rounded=0;whiteSpace=wrap;html=1;fillColor=#FFFFCC;" parent="1" vertex="1">
          <mxGeometry x="1120" y="10" width="150" height="40" as="geometry" />
        </mxCell>
        <mxCell id="NUGtLv0-GDBaZmMCbuX2-66" style="edgeStyle=orthogonalEdgeStyle;rounded=0;orthogonalLoop=1;jettySize=auto;html=1;" parent="1" source="NUGtLv0-GDBaZmMCbuX2-59" target="NUGtLv0-GDBaZmMCbuX2-62" edge="1">
          <mxGeometry relative="1" as="geometry" />
        </mxCell>
        <mxCell id="NUGtLv0-GDBaZmMCbuX2-70" style="edgeStyle=orthogonalEdgeStyle;rounded=0;orthogonalLoop=1;jettySize=auto;html=1;" parent="1" source="NUGtLv0-GDBaZmMCbuX2-59" target="NUGtLv0-GDBaZmMCbuX2-67" edge="1">
          <mxGeometry relative="1" as="geometry">
            <Array as="points">
              <mxPoint x="1290" y="100" />
              <mxPoint x="1290" y="160" />
            </Array>
          </mxGeometry>
        </mxCell>
        <mxCell id="NUGtLv0-GDBaZmMCbuX2-59" value="@EnableAutoConfiguration" style="rounded=0;whiteSpace=wrap;html=1;fillColor=#FFFFCC;" parent="1" vertex="1">
          <mxGeometry x="1120" y="80" width="150" height="40" as="geometry" />
        </mxCell>
        <mxCell id="NUGtLv0-GDBaZmMCbuX2-60" value="@ComponentScan" style="rounded=0;whiteSpace=wrap;html=1;fillColor=#FFFFCC;" parent="1" vertex="1">
          <mxGeometry x="1120" y="240" width="150" height="40" as="geometry" />
        </mxCell>
        <mxCell id="NUGtLv0-GDBaZmMCbuX2-62" value="@AutoConfiguration" style="rounded=0;whiteSpace=wrap;html=1;fillColor=#FFFFCC;" parent="1" vertex="1">
          <mxGeometry x="1320" y="80" width="150" height="40" as="geometry" />
        </mxCell>
        <mxCell id="NUGtLv0-GDBaZmMCbuX2-65" value="" style="edgeStyle=orthogonalEdgeStyle;rounded=0;orthogonalLoop=1;jettySize=auto;html=1;" parent="1" source="NUGtLv0-GDBaZmMCbuX2-58" target="NUGtLv0-GDBaZmMCbuX2-64" edge="1">
          <mxGeometry relative="1" as="geometry">
            <mxPoint x="1270" y="30" as="sourcePoint" />
            <mxPoint x="1395" y="80" as="targetPoint" />
          </mxGeometry>
        </mxCell>
        <mxCell id="NUGtLv0-GDBaZmMCbuX2-64" value="@Configuration" style="rounded=0;whiteSpace=wrap;html=1;fillColor=#FFFFCC;" parent="1" vertex="1">
          <mxGeometry x="1320" y="10" width="150" height="40" as="geometry" />
        </mxCell>
        <mxCell id="NUGtLv0-GDBaZmMCbuX2-71" style="edgeStyle=orthogonalEdgeStyle;rounded=0;orthogonalLoop=1;jettySize=auto;html=1;" parent="1" source="NUGtLv0-GDBaZmMCbuX2-67" target="NUGtLv0-GDBaZmMCbuX2-68" edge="1">
          <mxGeometry relative="1" as="geometry" />
        </mxCell>
        <mxCell id="NUGtLv0-GDBaZmMCbuX2-67" value="@Import" style="rounded=0;whiteSpace=wrap;html=1;fillColor=#FFFFCC;" parent="1" vertex="1">
          <mxGeometry x="1320" y="140" width="150" height="40" as="geometry" />
        </mxCell>
        <mxCell id="NUGtLv0-GDBaZmMCbuX2-68" value="&lt;span style=&quot;text-wrap-mode: wrap;&quot;&gt;AutoConfigurationImportSelector.class&lt;/span&gt;" style="text;html=1;align=center;verticalAlign=middle;resizable=0;points=[];autosize=1;strokeColor=none;fillColor=none;" parent="1" vertex="1">
          <mxGeometry x="1280" y="205" width="230" height="30" as="geometry" />
        </mxCell>
        <mxCell id="NUGtLv0-GDBaZmMCbuX2-87" style="edgeStyle=orthogonalEdgeStyle;rounded=0;orthogonalLoop=1;jettySize=auto;html=1;" parent="1" source="NUGtLv0-GDBaZmMCbuX2-76" target="NUGtLv0-GDBaZmMCbuX2-79" edge="1">
          <mxGeometry relative="1" as="geometry" />
        </mxCell>
        <mxCell id="NUGtLv0-GDBaZmMCbuX2-76" value="SpringBootApplication.run()" style="rounded=0;whiteSpace=wrap;html=1;fillColor=none;" parent="1" vertex="1">
          <mxGeometry x="920" y="360" width="200" height="40" as="geometry" />
        </mxCell>
        <mxCell id="NUGtLv0-GDBaZmMCbuX2-91" style="edgeStyle=orthogonalEdgeStyle;rounded=0;orthogonalLoop=1;jettySize=auto;html=1;" parent="1" source="NUGtLv0-GDBaZmMCbuX2-79" target="NUGtLv0-GDBaZmMCbuX2-80" edge="1">
          <mxGeometry relative="1" as="geometry" />
        </mxCell>
        <mxCell id="NUGtLv0-GDBaZmMCbuX2-79" value="Loading and handling all configuration classes" style="rounded=0;whiteSpace=wrap;html=1;fillColor=none;" parent="1" vertex="1">
          <mxGeometry x="920" y="445" width="200" height="40" as="geometry" />
        </mxCell>
        <mxCell id="NUGtLv0-GDBaZmMCbuX2-80" value="" style="rounded=0;whiteSpace=wrap;html=1;fillColor=none;dashed=1;" parent="1" vertex="1">
          <mxGeometry x="1181" y="380" width="259" height="170" as="geometry" />
        </mxCell>
        <mxCell id="NUGtLv0-GDBaZmMCbuX2-83" style="edgeStyle=orthogonalEdgeStyle;rounded=0;orthogonalLoop=1;jettySize=auto;html=1;" parent="1" source="NUGtLv0-GDBaZmMCbuX2-81" target="NUGtLv0-GDBaZmMCbuX2-82" edge="1">
          <mxGeometry relative="1" as="geometry" />
        </mxCell>
        <mxCell id="NUGtLv0-GDBaZmMCbuX2-81" value="@ComponentScan" style="rounded=0;whiteSpace=wrap;html=1;fillColor=#FFFFCC;" parent="1" vertex="1">
          <mxGeometry x="1230" y="400" width="150" height="40" as="geometry" />
        </mxCell>
        <mxCell id="NUGtLv0-GDBaZmMCbuX2-82" value="@EnableAutoConfiguration" style="rounded=0;whiteSpace=wrap;html=1;fillColor=#FFFFCC;" parent="1" vertex="1">
          <mxGeometry x="1230" y="480" width="150" height="40" as="geometry" />
        </mxCell>
        <mxCell id="NUGtLv0-GDBaZmMCbuX2-84" value="Loading configuration classes." style="text;html=1;align=center;verticalAlign=middle;resizable=0;points=[];autosize=1;strokeColor=none;fillColor=none;fontStyle=1" parent="1" vertex="1">
          <mxGeometry x="1215" y="350" width="180" height="30" as="geometry" />
        </mxCell>
        <mxCell id="NUGtLv0-GDBaZmMCbuX2-92" value="" style="rounded=0;whiteSpace=wrap;html=1;fillColor=none;dashed=1;" parent="1" vertex="1">
          <mxGeometry x="1480" y="380" width="259" height="190" as="geometry" />
        </mxCell>
        <mxCell id="NUGtLv0-GDBaZmMCbuX2-93" value="@AutoConfiguration" style="rounded=0;whiteSpace=wrap;html=1;fillColor=#FFFFCC;" parent="1" vertex="1">
          <mxGeometry x="1520" y="400" width="150" height="40" as="geometry" />
        </mxCell>
        <mxCell id="NUGtLv0-GDBaZmMCbuX2-97" style="edgeStyle=orthogonalEdgeStyle;rounded=0;orthogonalLoop=1;jettySize=auto;html=1;entryX=0;entryY=0.5;entryDx=0;entryDy=0;" parent="1" source="NUGtLv0-GDBaZmMCbuX2-98" target="NUGtLv0-GDBaZmMCbuX2-99" edge="1">
          <mxGeometry relative="1" as="geometry">
            <Array as="points">
              <mxPoint x="1090" y="940" />
              <mxPoint x="1090" y="850" />
            </Array>
          </mxGeometry>
        </mxCell>
        <mxCell id="NUGtLv0-GDBaZmMCbuX2-117" style="edgeStyle=orthogonalEdgeStyle;rounded=0;orthogonalLoop=1;jettySize=auto;html=1;" parent="1" source="NUGtLv0-GDBaZmMCbuX2-98" target="NUGtLv0-GDBaZmMCbuX2-103" edge="1">
          <mxGeometry relative="1" as="geometry" />
        </mxCell>
        <mxCell id="NUGtLv0-GDBaZmMCbuX2-118" style="edgeStyle=orthogonalEdgeStyle;rounded=0;orthogonalLoop=1;jettySize=auto;html=1;" parent="1" source="NUGtLv0-GDBaZmMCbuX2-98" target="NUGtLv0-GDBaZmMCbuX2-102" edge="1">
          <mxGeometry relative="1" as="geometry">
            <Array as="points">
              <mxPoint x="1090" y="940" />
              <mxPoint x="1090" y="1020" />
            </Array>
          </mxGeometry>
        </mxCell>
        <mxCell id="NUGtLv0-GDBaZmMCbuX2-98" value="@SpringBootApplication" style="rounded=0;whiteSpace=wrap;html=1;fillColor=#FFFFCC;" parent="1" vertex="1">
          <mxGeometry x="920" y="920" width="150" height="40" as="geometry" />
        </mxCell>
        <mxCell id="NUGtLv0-GDBaZmMCbuX2-99" value="@SpringBootConfiguration" style="rounded=0;whiteSpace=wrap;html=1;fillColor=#FFFFCC;" parent="1" vertex="1">
          <mxGeometry x="1120" y="830" width="150" height="40" as="geometry" />
        </mxCell>
        <mxCell id="NUGtLv0-GDBaZmMCbuX2-100" style="edgeStyle=orthogonalEdgeStyle;rounded=0;orthogonalLoop=1;jettySize=auto;html=1;" parent="1" source="NUGtLv0-GDBaZmMCbuX2-102" target="NUGtLv0-GDBaZmMCbuX2-104" edge="1">
          <mxGeometry relative="1" as="geometry" />
        </mxCell>
        <mxCell id="NUGtLv0-GDBaZmMCbuX2-101" style="edgeStyle=orthogonalEdgeStyle;rounded=0;orthogonalLoop=1;jettySize=auto;html=1;" parent="1" source="NUGtLv0-GDBaZmMCbuX2-102" target="NUGtLv0-GDBaZmMCbuX2-108" edge="1">
          <mxGeometry relative="1" as="geometry">
            <Array as="points">
              <mxPoint x="1290" y="1020" />
              <mxPoint x="1290" y="1080" />
            </Array>
          </mxGeometry>
        </mxCell>
        <mxCell id="NUGtLv0-GDBaZmMCbuX2-102" value="@EnableAutoConfiguration" style="rounded=0;whiteSpace=wrap;html=1;fillColor=#FFFFCC;" parent="1" vertex="1">
          <mxGeometry x="1120" y="1000" width="150" height="40" as="geometry" />
        </mxCell>
        <mxCell id="NUGtLv0-GDBaZmMCbuX2-120" style="edgeStyle=orthogonalEdgeStyle;rounded=0;orthogonalLoop=1;jettySize=auto;html=1;" parent="1" source="NUGtLv0-GDBaZmMCbuX2-103" target="NUGtLv0-GDBaZmMCbuX2-119" edge="1">
          <mxGeometry relative="1" as="geometry" />
        </mxCell>
        <mxCell id="NUGtLv0-GDBaZmMCbuX2-103" value="@ComponentScan" style="rounded=0;whiteSpace=wrap;html=1;fillColor=#FFFFCC;" parent="1" vertex="1">
          <mxGeometry x="1120" y="920" width="150" height="40" as="geometry" />
        </mxCell>
        <mxCell id="NUGtLv0-GDBaZmMCbuX2-115" style="edgeStyle=orthogonalEdgeStyle;rounded=0;orthogonalLoop=1;jettySize=auto;html=1;" parent="1" source="NUGtLv0-GDBaZmMCbuX2-104" target="NUGtLv0-GDBaZmMCbuX2-114" edge="1">
          <mxGeometry relative="1" as="geometry" />
        </mxCell>
        <mxCell id="NUGtLv0-GDBaZmMCbuX2-104" value="@AutoConfiguration" style="rounded=0;whiteSpace=wrap;html=1;fillColor=#FFFFCC;" parent="1" vertex="1">
          <mxGeometry x="1320" y="1000" width="150" height="40" as="geometry" />
        </mxCell>
        <mxCell id="NUGtLv0-GDBaZmMCbuX2-105" value="" style="edgeStyle=orthogonalEdgeStyle;rounded=0;orthogonalLoop=1;jettySize=auto;html=1;" parent="1" source="NUGtLv0-GDBaZmMCbuX2-99" target="NUGtLv0-GDBaZmMCbuX2-106" edge="1">
          <mxGeometry relative="1" as="geometry">
            <mxPoint x="1270" y="850" as="sourcePoint" />
            <mxPoint x="1395" y="900" as="targetPoint" />
          </mxGeometry>
        </mxCell>
        <mxCell id="NUGtLv0-GDBaZmMCbuX2-106" value="@Configuration" style="rounded=0;whiteSpace=wrap;html=1;fillColor=#FFFFCC;" parent="1" vertex="1">
          <mxGeometry x="1320" y="830" width="150" height="40" as="geometry" />
        </mxCell>
        <mxCell id="NUGtLv0-GDBaZmMCbuX2-107" style="edgeStyle=orthogonalEdgeStyle;rounded=0;orthogonalLoop=1;jettySize=auto;html=1;" parent="1" source="NUGtLv0-GDBaZmMCbuX2-108" target="NUGtLv0-GDBaZmMCbuX2-109" edge="1">
          <mxGeometry relative="1" as="geometry" />
        </mxCell>
        <mxCell id="NUGtLv0-GDBaZmMCbuX2-121" style="edgeStyle=orthogonalEdgeStyle;rounded=0;orthogonalLoop=1;jettySize=auto;html=1;" parent="1" source="NUGtLv0-GDBaZmMCbuX2-108" target="NUGtLv0-GDBaZmMCbuX2-122" edge="1">
          <mxGeometry relative="1" as="geometry">
            <mxPoint x="1520" y="1080" as="targetPoint" />
            <Array as="points">
              <mxPoint x="1510" y="1080" />
              <mxPoint x="1510" y="1080" />
            </Array>
          </mxGeometry>
        </mxCell>
        <mxCell id="NUGtLv0-GDBaZmMCbuX2-108" value="@Import" style="rounded=0;whiteSpace=wrap;html=1;fillColor=#FFFFCC;" parent="1" vertex="1">
          <mxGeometry x="1320" y="1060" width="150" height="40" as="geometry" />
        </mxCell>
        <mxCell id="NUGtLv0-GDBaZmMCbuX2-109" value="&lt;span style=&quot;text-wrap-mode: wrap;&quot;&gt;AutoConfigurationImportSelector.class&lt;/span&gt;" style="text;html=1;align=center;verticalAlign=middle;resizable=0;points=[];autosize=1;strokeColor=none;fillColor=none;" parent="1" vertex="1">
          <mxGeometry x="1280" y="1125" width="230" height="30" as="geometry" />
        </mxCell>
        <mxCell id="NUGtLv0-GDBaZmMCbuX2-110" style="edgeStyle=orthogonalEdgeStyle;rounded=0;orthogonalLoop=1;jettySize=auto;html=1;" parent="1" source="NUGtLv0-GDBaZmMCbuX2-111" target="NUGtLv0-GDBaZmMCbuX2-112" edge="1">
          <mxGeometry relative="1" as="geometry" />
        </mxCell>
        <mxCell id="NUGtLv0-GDBaZmMCbuX2-111" value="SpringBootApplication.run()" style="rounded=0;whiteSpace=wrap;html=1;fillColor=none;fontStyle=1" parent="1" vertex="1">
          <mxGeometry x="680" y="850" width="200" height="40" as="geometry" />
        </mxCell>
        <mxCell id="NUGtLv0-GDBaZmMCbuX2-113" style="edgeStyle=orthogonalEdgeStyle;rounded=0;orthogonalLoop=1;jettySize=auto;html=1;" parent="1" source="NUGtLv0-GDBaZmMCbuX2-112" target="NUGtLv0-GDBaZmMCbuX2-98" edge="1">
          <mxGeometry relative="1" as="geometry" />
        </mxCell>
        <mxCell id="NUGtLv0-GDBaZmMCbuX2-112" value="Loading and handling all configuration classes" style="rounded=0;whiteSpace=wrap;html=1;fillColor=none;fontStyle=1" parent="1" vertex="1">
          <mxGeometry x="680" y="920" width="200" height="40" as="geometry" />
        </mxCell>
        <mxCell id="NUGtLv0-GDBaZmMCbuX2-114" value="Loading components under the current package path." style="rounded=0;whiteSpace=wrap;html=1;fillColor=none;fontStyle=1" parent="1" vertex="1">
          <mxGeometry x="1520" y="1000" width="200" height="40" as="geometry" />
        </mxCell>
        <mxCell id="NUGtLv0-GDBaZmMCbuX2-119" value="Loading components under the specific packages." style="rounded=0;whiteSpace=wrap;html=1;fillColor=none;fontStyle=1" parent="1" vertex="1">
          <mxGeometry x="1520" y="920" width="200" height="40" as="geometry" />
        </mxCell>
        <mxCell id="NUGtLv0-GDBaZmMCbuX2-122" value="" style="rounded=0;whiteSpace=wrap;html=1;fillColor=none;dashed=1;" parent="1" vertex="1">
          <mxGeometry x="1520" y="1060" width="230" height="190" as="geometry" />
        </mxCell>
        <mxCell id="NUGtLv0-GDBaZmMCbuX2-126" style="edgeStyle=orthogonalEdgeStyle;rounded=0;orthogonalLoop=1;jettySize=auto;html=1;" parent="1" source="NUGtLv0-GDBaZmMCbuX2-123" target="NUGtLv0-GDBaZmMCbuX2-125" edge="1">
          <mxGeometry relative="1" as="geometry" />
        </mxCell>
        <mxCell id="NUGtLv0-GDBaZmMCbuX2-123" value="Read META-INF/spring.factories" style="rounded=0;whiteSpace=wrap;html=1;fillColor=none;fontStyle=1" parent="1" vertex="1">
          <mxGeometry x="1530" y="1070" width="200" height="40" as="geometry" />
        </mxCell>
        <mxCell id="NUGtLv0-GDBaZmMCbuX2-125" value="Deduplication / Exclusion / Conditional Matching / Ordering" style="rounded=0;whiteSpace=wrap;html=1;fillColor=none;fontStyle=1" parent="1" vertex="1">
          <mxGeometry x="1530" y="1135" width="200" height="40" as="geometry" />
        </mxCell>
        <mxCell id="NUGtLv0-GDBaZmMCbuX2-127" value="Register the components." style="rounded=0;whiteSpace=wrap;html=1;fillColor=none;fontStyle=1" parent="1" vertex="1">
          <mxGeometry x="1530" y="1190" width="200" height="40" as="geometry" />
        </mxCell>
        <mxCell id="rxfItcIWFSnz3CFshnel-2" value="" style="rounded=0;whiteSpace=wrap;html=1;fillColor=none;dashed=1;" parent="1" vertex="1">
          <mxGeometry x="170" y="520" width="240" height="210" as="geometry" />
        </mxCell>
        <mxCell id="rxfItcIWFSnz3CFshnel-14" style="edgeStyle=orthogonalEdgeStyle;rounded=0;orthogonalLoop=1;jettySize=auto;html=1;" parent="1" source="rxfItcIWFSnz3CFshnel-3" target="rxfItcIWFSnz3CFshnel-13" edge="1">
          <mxGeometry relative="1" as="geometry" />
        </mxCell>
        <mxCell id="rxfItcIWFSnz3CFshnel-3" value="&lt;b&gt;Key =&amp;nbsp;&lt;/b&gt;" style="text;html=1;align=center;verticalAlign=middle;resizable=0;points=[];autosize=1;strokeColor=none;fillColor=none;" parent="1" vertex="1">
          <mxGeometry x="60" y="480" width="60" height="30" as="geometry" />
        </mxCell>
        <mxCell id="rxfItcIWFSnz3CFshnel-4" value="score（时间戳） :&amp;nbsp; &amp;nbsp;value（时间戳）" style="rounded=0;whiteSpace=wrap;html=1;" parent="1" vertex="1">
          <mxGeometry x="190" y="530" width="200" height="30" as="geometry" />
        </mxCell>
        <mxCell id="rxfItcIWFSnz3CFshnel-8" value="Score从小到大&lt;br&gt;排序" style="endArrow=classic;html=1;rounded=0;" parent="1" edge="1">
          <mxGeometry width="50" height="50" relative="1" as="geometry">
            <mxPoint x="448.75" y="530" as="sourcePoint" />
            <mxPoint x="448.75" y="710" as="targetPoint" />
          </mxGeometry>
        </mxCell>
        <mxCell id="rxfItcIWFSnz3CFshnel-9" value="score（时间戳） :&amp;nbsp; &amp;nbsp;value（时间戳）" style="rounded=0;whiteSpace=wrap;html=1;" parent="1" vertex="1">
          <mxGeometry x="190" y="580" width="200" height="30" as="geometry" />
        </mxCell>
        <mxCell id="rxfItcIWFSnz3CFshnel-10" value="score（时间戳） :&amp;nbsp; &amp;nbsp;value（时间戳）" style="rounded=0;whiteSpace=wrap;html=1;" parent="1" vertex="1">
          <mxGeometry x="190" y="630" width="200" height="30" as="geometry" />
        </mxCell>
        <mxCell id="rxfItcIWFSnz3CFshnel-11" value="score（时间戳） :&amp;nbsp; &amp;nbsp;value（时间戳）" style="rounded=0;whiteSpace=wrap;html=1;" parent="1" vertex="1">
          <mxGeometry x="190" y="680" width="200" height="30" as="geometry" />
        </mxCell>
        <mxCell id="rxfItcIWFSnz3CFshnel-15" style="edgeStyle=orthogonalEdgeStyle;rounded=0;orthogonalLoop=1;jettySize=auto;html=1;" parent="1" source="rxfItcIWFSnz3CFshnel-12" target="rxfItcIWFSnz3CFshnel-2" edge="1">
          <mxGeometry relative="1" as="geometry" />
        </mxCell>
        <mxCell id="rxfItcIWFSnz3CFshnel-12" value="Value =&amp;nbsp;" style="text;html=1;align=center;verticalAlign=middle;resizable=0;points=[];autosize=1;strokeColor=none;fillColor=none;fontStyle=1" parent="1" vertex="1">
          <mxGeometry x="60" y="610" width="70" height="30" as="geometry" />
        </mxCell>
        <mxCell id="rxfItcIWFSnz3CFshnel-13" value="&lt;b&gt;system : register : md5(IP+Email)&lt;/b&gt;" style="text;html=1;align=center;verticalAlign=middle;resizable=0;points=[];autosize=1;strokeColor=none;fillColor=none;" parent="1" vertex="1">
          <mxGeometry x="170" y="480" width="210" height="30" as="geometry" />
        </mxCell>
        <mxCell id="rxfItcIWFSnz3CFshnel-16" value="" style="rounded=0;whiteSpace=wrap;html=1;fillColor=none;dashed=1;" parent="1" vertex="1">
          <mxGeometry x="9.289999999999992" y="810" width="240" height="210" as="geometry" />
        </mxCell>
        <mxCell id="rxfItcIWFSnz3CFshnel-17" style="edgeStyle=orthogonalEdgeStyle;rounded=0;orthogonalLoop=1;jettySize=auto;html=1;" parent="1" source="rxfItcIWFSnz3CFshnel-18" target="rxfItcIWFSnz3CFshnel-26" edge="1">
          <mxGeometry relative="1" as="geometry" />
        </mxCell>
        <mxCell id="rxfItcIWFSnz3CFshnel-18" value="&lt;b&gt;Key =&amp;nbsp;&lt;/b&gt;" style="text;html=1;align=center;verticalAlign=middle;resizable=0;points=[];autosize=1;strokeColor=none;fillColor=none;" parent="1" vertex="1">
          <mxGeometry x="-100.71000000000001" y="770" width="60" height="30" as="geometry" />
        </mxCell>
        <mxCell id="rxfItcIWFSnz3CFshnel-19" value="score = 1 :&amp;nbsp; &amp;nbsp;value = 1" style="rounded=0;whiteSpace=wrap;html=1;" parent="1" vertex="1">
          <mxGeometry x="29.289999999999992" y="820" width="200" height="30" as="geometry" />
        </mxCell>
        <mxCell id="rxfItcIWFSnz3CFshnel-21" value="score = 2&amp;nbsp; :&amp;nbsp; &amp;nbsp;value = 2" style="rounded=0;whiteSpace=wrap;html=1;" parent="1" vertex="1">
          <mxGeometry x="29.289999999999992" y="870" width="200" height="30" as="geometry" />
        </mxCell>
        <mxCell id="rxfItcIWFSnz3CFshnel-22" value="score = 3 :&amp;nbsp; &amp;nbsp;value = 3" style="rounded=0;whiteSpace=wrap;html=1;" parent="1" vertex="1">
          <mxGeometry x="29.289999999999992" y="920" width="200" height="30" as="geometry" />
        </mxCell>
        <mxCell id="rxfItcIWFSnz3CFshnel-23" value="score = 4 :&amp;nbsp; &amp;nbsp;value = 4" style="rounded=0;whiteSpace=wrap;html=1;" parent="1" vertex="1">
          <mxGeometry x="29.289999999999992" y="970" width="200" height="30" as="geometry" />
        </mxCell>
        <mxCell id="rxfItcIWFSnz3CFshnel-24" style="edgeStyle=orthogonalEdgeStyle;rounded=0;orthogonalLoop=1;jettySize=auto;html=1;" parent="1" source="rxfItcIWFSnz3CFshnel-25" target="rxfItcIWFSnz3CFshnel-16" edge="1">
          <mxGeometry relative="1" as="geometry" />
        </mxCell>
        <mxCell id="rxfItcIWFSnz3CFshnel-25" value="Value =&amp;nbsp;" style="text;html=1;align=center;verticalAlign=middle;resizable=0;points=[];autosize=1;strokeColor=none;fillColor=none;fontStyle=1" parent="1" vertex="1">
          <mxGeometry x="-100.71000000000001" y="900" width="70" height="30" as="geometry" />
        </mxCell>
        <mxCell id="rxfItcIWFSnz3CFshnel-26" value="&lt;b&gt;system : register : md5(IP+Email)&lt;/b&gt;" style="text;html=1;align=center;verticalAlign=middle;resizable=0;points=[];autosize=1;strokeColor=none;fillColor=none;" parent="1" vertex="1">
          <mxGeometry x="9.289999999999992" y="770" width="210" height="30" as="geometry" />
        </mxCell>
        <mxCell id="rxfItcIWFSnz3CFshnel-28" value="" style="endArrow=classic;html=1;rounded=0;" parent="1" edge="1">
          <mxGeometry width="50" height="50" relative="1" as="geometry">
            <mxPoint x="-200" y="1120" as="sourcePoint" />
            <mxPoint x="320" y="1120" as="targetPoint" />
          </mxGeometry>
        </mxCell>
        <mxCell id="rxfItcIWFSnz3CFshnel-29" value="00" style="text;html=1;align=center;verticalAlign=middle;resizable=0;points=[];autosize=1;strokeColor=none;fillColor=none;" parent="1" vertex="1">
          <mxGeometry x="-160" y="1120" width="40" height="30" as="geometry" />
        </mxCell>
        <mxCell id="rxfItcIWFSnz3CFshnel-30" value="" style="ellipse;whiteSpace=wrap;html=1;aspect=fixed;" parent="1" vertex="1">
          <mxGeometry x="-150" y="1100" width="20" height="20" as="geometry" />
        </mxCell>
        <mxCell id="rxfItcIWFSnz3CFshnel-31" value="01" style="text;html=1;align=center;verticalAlign=middle;resizable=0;points=[];autosize=1;strokeColor=none;fillColor=none;" parent="1" vertex="1">
          <mxGeometry x="-80" y="1120" width="40" height="30" as="geometry" />
        </mxCell>
        <mxCell id="rxfItcIWFSnz3CFshnel-32" value="02" style="text;html=1;align=center;verticalAlign=middle;resizable=0;points=[];autosize=1;strokeColor=none;fillColor=none;" parent="1" vertex="1">
          <mxGeometry x="-7.105427357601002e-15" y="1120" width="40" height="30" as="geometry" />
        </mxCell>
        <mxCell id="rxfItcIWFSnz3CFshnel-34" value="" style="ellipse;whiteSpace=wrap;html=1;aspect=fixed;" parent="1" vertex="1">
          <mxGeometry x="-70" y="1100" width="20" height="20" as="geometry" />
        </mxCell>
        <mxCell id="rxfItcIWFSnz3CFshnel-35" value="03" style="text;html=1;align=center;verticalAlign=middle;resizable=0;points=[];autosize=1;strokeColor=none;fillColor=none;" parent="1" vertex="1">
          <mxGeometry x="80" y="1120" width="40" height="30" as="geometry" />
        </mxCell>
        <mxCell id="rxfItcIWFSnz3CFshnel-38" value="04" style="text;html=1;align=center;verticalAlign=middle;resizable=0;points=[];autosize=1;strokeColor=none;fillColor=none;" parent="1" vertex="1">
          <mxGeometry x="160" y="1120" width="40" height="30" as="geometry" />
        </mxCell>
        <mxCell id="rxfItcIWFSnz3CFshnel-43" value="05" style="text;html=1;align=center;verticalAlign=middle;resizable=0;points=[];autosize=1;strokeColor=none;fillColor=none;" parent="1" vertex="1">
          <mxGeometry x="240" y="1120" width="40" height="30" as="geometry" />
        </mxCell>
        <mxCell id="rxfItcIWFSnz3CFshnel-46" value="" style="ellipse;whiteSpace=wrap;html=1;aspect=fixed;" parent="1" vertex="1">
          <mxGeometry x="170" y="1051.56" width="20" height="20" as="geometry" />
        </mxCell>
        <mxCell id="rxfItcIWFSnz3CFshnel-49" style="edgeStyle=orthogonalEdgeStyle;rounded=0;orthogonalLoop=1;jettySize=auto;html=1;entryX=0.482;entryY=-0.052;entryDx=0;entryDy=0;entryPerimeter=0;" parent="1" source="rxfItcIWFSnz3CFshnel-46" edge="1">
          <mxGeometry relative="1" as="geometry">
            <mxPoint x="179.99" y="1120" as="targetPoint" />
          </mxGeometry>
        </mxCell>
        <mxCell id="rxfItcIWFSnz3CFshnel-50" value="新请求" style="text;html=1;align=center;verticalAlign=middle;resizable=0;points=[];autosize=1;strokeColor=none;fillColor=none;" parent="1" vertex="1">
          <mxGeometry x="170.71000000000004" y="1076.56" width="60" height="30" as="geometry" />
        </mxCell>
        <mxCell id="rxfItcIWFSnz3CFshnel-51" value="分钟" style="text;html=1;align=center;verticalAlign=middle;resizable=0;points=[];autosize=1;strokeColor=none;fillColor=none;" parent="1" vertex="1">
          <mxGeometry x="290" y="1120" width="50" height="30" as="geometry" />
        </mxCell>
        <mxCell id="llhdRNOZYohhOxRvLzvJ-3" value="" style="ellipse;whiteSpace=wrap;html=1;aspect=fixed;" parent="1" vertex="1">
          <mxGeometry x="50" y="1100" width="20" height="20" as="geometry" />
        </mxCell>
        <mxCell id="nSWta7cHLVQgfDduEso--4" value="OA接口&lt;br&gt;自动登录" style="rounded=0;whiteSpace=wrap;html=1;" parent="1" vertex="1">
          <mxGeometry x="415" y="100" width="50" height="30" as="geometry" />
        </mxCell>
        <mxCell id="nSWta7cHLVQgfDduEso--7" value="跳转" style="endArrow=classic;html=1;rounded=0;" parent="1" target="nSWta7cHLVQgfDduEso--4" edge="1">
          <mxGeometry width="50" height="50" relative="1" as="geometry">
            <mxPoint x="280" y="115" as="sourcePoint" />
            <mxPoint x="470" y="130" as="targetPoint" />
          </mxGeometry>
        </mxCell>
        <mxCell id="nSWta7cHLVQgfDduEso--8" value="跳转" style="endArrow=classic;html=1;rounded=0;" parent="1" edge="1">
          <mxGeometry width="50" height="50" relative="1" as="geometry">
            <mxPoint x="440" y="160" as="sourcePoint" />
            <mxPoint x="575" y="160" as="targetPoint" />
          </mxGeometry>
        </mxCell>
        <mxCell id="nSWta7cHLVQgfDduEso--10" value="" style="edgeStyle=orthogonalEdgeStyle;rounded=0;orthogonalLoop=1;jettySize=auto;html=1;endArrow=none;startFill=0;strokeColor=default;dashed=1;" parent="1" source="NUGtLv0-GDBaZmMCbuX2-31" target="nSWta7cHLVQgfDduEso--9" edge="1">
          <mxGeometry relative="1" as="geometry">
            <mxPoint x="600" y="360" as="targetPoint" />
            <mxPoint x="600" y="80" as="sourcePoint" />
          </mxGeometry>
        </mxCell>
        <mxCell id="nSWta7cHLVQgfDduEso--9" value="OA接口&lt;br&gt;自动登录" style="rounded=0;whiteSpace=wrap;html=1;" parent="1" vertex="1">
          <mxGeometry x="575" y="145" width="50" height="30" as="geometry" />
        </mxCell>
        <mxCell id="nSWta7cHLVQgfDduEso--11" value="跳转&lt;br&gt;用户登录信息&lt;br&gt;oldIndentity" style="endArrow=classic;html=1;rounded=0;entryX=0.934;entryY=0.196;entryDx=0;entryDy=0;entryPerimeter=0;" parent="1" target="nSWta7cHLVQgfDduEso--14" edge="1">
          <mxGeometry width="50" height="50" relative="1" as="geometry">
            <mxPoint x="600" y="230" as="sourcePoint" />
            <mxPoint x="530" y="230" as="targetPoint" />
          </mxGeometry>
        </mxCell>
        <mxCell id="nSWta7cHLVQgfDduEso--15" value="" style="edgeStyle=orthogonalEdgeStyle;rounded=0;orthogonalLoop=1;jettySize=auto;html=1;endArrow=none;startFill=0;dashed=1;" parent="1" source="NUGtLv0-GDBaZmMCbuX2-19" target="nSWta7cHLVQgfDduEso--14" edge="1">
          <mxGeometry relative="1" as="geometry">
            <mxPoint x="440" y="360" as="targetPoint" />
            <mxPoint x="440" y="80" as="sourcePoint" />
          </mxGeometry>
        </mxCell>
        <mxCell id="nSWta7cHLVQgfDduEso--14" value="" style="rounded=0;whiteSpace=wrap;html=1;" parent="1" vertex="1">
          <mxGeometry x="432" y="205" width="16" height="125" as="geometry" />
        </mxCell>
        <mxCell id="nSWta7cHLVQgfDduEso--16" style="edgeStyle=orthogonalEdgeStyle;rounded=0;orthogonalLoop=1;jettySize=auto;html=1;" parent="1" source="nSWta7cHLVQgfDduEso--14" target="nSWta7cHLVQgfDduEso--14" edge="1">
          <mxGeometry relative="1" as="geometry">
            <Array as="points">
              <mxPoint x="390" y="240" />
              <mxPoint x="390" y="320" />
            </Array>
          </mxGeometry>
        </mxCell>
        <mxCell id="nSWta7cHLVQgfDduEso--17" value="前端调用登录接口&lt;br&gt;自动登录" style="edgeLabel;html=1;align=center;verticalAlign=middle;resizable=0;points=[];" parent="nSWta7cHLVQgfDduEso--16" vertex="1" connectable="0">
          <mxGeometry x="-0.0799" y="-1" relative="1" as="geometry">
            <mxPoint x="-9" y="7" as="offset" />
          </mxGeometry>
        </mxCell>
        <mxCell id="7SKIFd48QXLSBfqfKtb0-9" style="edgeStyle=orthogonalEdgeStyle;rounded=0;orthogonalLoop=1;jettySize=auto;html=1;" edge="1" parent="1" source="7SKIFd48QXLSBfqfKtb0-2" target="7SKIFd48QXLSBfqfKtb0-8">
          <mxGeometry relative="1" as="geometry" />
        </mxCell>
        <mxCell id="7SKIFd48QXLSBfqfKtb0-2" value="&lt;b&gt;开始&lt;/b&gt;" style="rounded=1;whiteSpace=wrap;html=1;fillColor=#dae8fc;strokeColor=#6c8ebf;" vertex="1" parent="1">
          <mxGeometry x="-650" y="50" width="80" height="30" as="geometry" />
        </mxCell>
        <mxCell id="7SKIFd48QXLSBfqfKtb0-13" style="edgeStyle=orthogonalEdgeStyle;rounded=0;orthogonalLoop=1;jettySize=auto;html=1;entryX=0.5;entryY=0;entryDx=0;entryDy=0;" edge="1" parent="1" source="7SKIFd48QXLSBfqfKtb0-8" target="7SKIFd48QXLSBfqfKtb0-12">
          <mxGeometry relative="1" as="geometry" />
        </mxCell>
        <mxCell id="7SKIFd48QXLSBfqfKtb0-8" value="新增文件专题&lt;br&gt;MAP_FILE_THEME" style="rounded=1;whiteSpace=wrap;html=1;fillColor=#D5E8D4;" vertex="1" parent="1">
          <mxGeometry x="-670" y="130" width="120" height="40" as="geometry" />
        </mxCell>
        <mxCell id="7SKIFd48QXLSBfqfKtb0-15" style="edgeStyle=orthogonalEdgeStyle;rounded=0;orthogonalLoop=1;jettySize=auto;html=1;" edge="1" parent="1" source="7SKIFd48QXLSBfqfKtb0-12" target="7SKIFd48QXLSBfqfKtb0-21">
          <mxGeometry relative="1" as="geometry">
            <mxPoint x="-839.9999999999998" y="242.5" as="targetPoint" />
            <Array as="points">
              <mxPoint x="-840" y="205" />
            </Array>
          </mxGeometry>
        </mxCell>
        <mxCell id="7SKIFd48QXLSBfqfKtb0-19" value="&lt;b&gt;arealevel = 4 and not zip file&lt;/b&gt;" style="edgeLabel;html=1;align=center;verticalAlign=middle;resizable=0;points=[];" vertex="1" connectable="0" parent="7SKIFd48QXLSBfqfKtb0-15">
          <mxGeometry x="0.5008" y="2" relative="1" as="geometry">
            <mxPoint as="offset" />
          </mxGeometry>
        </mxCell>
        <mxCell id="7SKIFd48QXLSBfqfKtb0-18" style="edgeStyle=orthogonalEdgeStyle;rounded=0;orthogonalLoop=1;jettySize=auto;html=1;" edge="1" parent="1" source="7SKIFd48QXLSBfqfKtb0-12" target="7SKIFd48QXLSBfqfKtb0-48">
          <mxGeometry relative="1" as="geometry">
            <mxPoint x="-489.9999999999998" y="260" as="targetPoint" />
          </mxGeometry>
        </mxCell>
        <mxCell id="7SKIFd48QXLSBfqfKtb0-20" value="areaLevelc != 4 and zip file" style="edgeLabel;html=1;align=center;verticalAlign=middle;resizable=0;points=[];fontStyle=1" vertex="1" connectable="0" parent="7SKIFd48QXLSBfqfKtb0-18">
          <mxGeometry x="-0.0625" y="-1" relative="1" as="geometry">
            <mxPoint as="offset" />
          </mxGeometry>
        </mxCell>
        <mxCell id="7SKIFd48QXLSBfqfKtb0-12" value="" style="rhombus;whiteSpace=wrap;html=1;fillColor=#CDA2BE;" vertex="1" parent="1">
          <mxGeometry x="-625" y="190" width="30" height="30" as="geometry" />
        </mxCell>
        <mxCell id="7SKIFd48QXLSBfqfKtb0-24" style="edgeStyle=orthogonalEdgeStyle;rounded=0;orthogonalLoop=1;jettySize=auto;html=1;" edge="1" parent="1" source="7SKIFd48QXLSBfqfKtb0-21" target="7SKIFd48QXLSBfqfKtb0-23">
          <mxGeometry relative="1" as="geometry" />
        </mxCell>
        <mxCell id="7SKIFd48QXLSBfqfKtb0-21" value="解压文件" style="rounded=1;whiteSpace=wrap;html=1;" vertex="1" parent="1">
          <mxGeometry x="-900" y="260" width="120" height="40" as="geometry" />
        </mxCell>
        <mxCell id="7SKIFd48QXLSBfqfKtb0-26" style="edgeStyle=orthogonalEdgeStyle;rounded=0;orthogonalLoop=1;jettySize=auto;html=1;" edge="1" parent="1" source="7SKIFd48QXLSBfqfKtb0-23" target="7SKIFd48QXLSBfqfKtb0-25">
          <mxGeometry relative="1" as="geometry" />
        </mxCell>
        <mxCell id="7SKIFd48QXLSBfqfKtb0-23" value="新增SystemFile记录" style="rounded=1;whiteSpace=wrap;html=1;fillColor=#F8CECC;" vertex="1" parent="1">
          <mxGeometry x="-900" y="330" width="120" height="40" as="geometry" />
        </mxCell>
        <mxCell id="7SKIFd48QXLSBfqfKtb0-25" value="新增文件专题关联关系&lt;br&gt;MAP_FILE_THEME_FILE" style="rounded=1;whiteSpace=wrap;html=1;fillColor=#D5E8D4;" vertex="1" parent="1">
          <mxGeometry x="-912.5" y="405" width="145" height="40" as="geometry" />
        </mxCell>
        <mxCell id="7SKIFd48QXLSBfqfKtb0-29" value="" style="shape=image;verticalLabelPosition=bottom;labelBackgroundColor=default;verticalAlign=top;aspect=fixed;imageAspect=0;editableCssRules=.*;image=data:image/svg+xml,PHN2ZyB4bWxuczp4bGluaz0iaHR0cDovL3d3dy53My5vcmcvMTk5OS94bGluayIgeG1sbnM9Imh0dHA6Ly93d3cudzMub3JnLzIwMDAvc3ZnIiBoZWlnaHQ9IjE5OS45MDAwMDcyNDc5MjQ4IiB3aWR0aD0iMjAwIiB2ZXJzaW9uPSIxLjEiIHZpZXdCb3g9IjAgMCAxMDI0IDEwMjMuNDg4MDM3MTA5Mzc1IiBjbGFzcz0iaWNvbiI+PHBhdGggZmlsbD0iI0VBRUFFQSIgZD0iTTcwNCAwSDE5MmMtMzUuMzI4IDAtNjQgMjguNjcyLTY0IDY0djMyMGg1NzZjMzUuMzI4IDAgNjQgMjguNjcyIDY0IDY0djQxNS43NDRjMCAzNS4zMjgtMjguNjcyIDY0LTY0IDY0SDEyOHYzMS43NDRjMCAzNS4zMjggMjguNjcyIDY0IDY0IDY0aDc2OGMzNS4zMjggMCA2NC0yOC42NzIgNjQtNjR2LTY0MEw3MDQgMHoiLz48cGF0aCBmaWxsPSIjNDM0ODU0IiBkPSJNNzA0IDB2MjU2YzAgMzUuMzI4IDI4LjY3MiA2NCA2NCA2NGgyNTZMNzA0IDB6Ii8+PHBhdGggb3BhY2l0eT0iLjEiIGQ9Ik03NjggMzIwbDI1NiAyNTZWMzIweiIvPjxwYXRoIGZpbGw9IiNDRDQwNTAiIGQ9Ik03MDQgODMyYzAgMTcuOTItMTQuMzM2IDMxLjc0NC0zMS43NDQgMzEuNzQ0SDMxLjc0NEMxMy44MjQgODYzLjc0NCAwIDg0OS40MDggMCA4MzJWNDgwLjI1NmMwLTE3LjkyIDE0LjMzNi0zMS43NDQgMzEuNzQ0LTMxLjc0NGg2NDBjMTcuOTIgMCAzMS43NDQgMTQuMzM2IDMxLjc0NCAzMS43NDRWODMyeiIvPjxwYXRoIGZpbGw9IiNGRkZGRkYiIGQ9Ik0xOTIgNTQ0LjI1NmgtNDguMTI4Yy04LjcwNCAwLTE1Ljg3MiA3LjE2OC0xNS44NzIgMTUuODcydjE5MmMwIDguNzA0IDcuMTY4IDE1Ljg3MiAxNS44NzIgMTUuODcyczE1Ljg3Mi03LjE2OCAxNS44NzItMTUuODcydi03OS44NzJoMzEuNzQ0YzM1LjMyOCAwIDY0LTI4LjY3MiA2NC02NHMtMjguMTYtNjQtNjMuNDg4LTY0eiBtMTU4LjcyIDBjMzQuODE2IDAgNjIuOTc2IDI3LjY0OCA2NCA2Mi40NjR2OTcuNzkyYzAgMzQuODE2LTI3LjY0OCA2Mi45NzYtNjIuNDY0IDY0aC00OS42NjRjLTguNzA0IDAtMTUuMzYtNi42NTYtMTUuODcyLTE0Ljg0OFY1NjAuNjRjMC04LjcwNCA2LjY1Ni0xNS4zNiAxNC44NDgtMTUuODcyaDQ5LjE1MnogbTIyNy4zMjggMGM4LjcwNCAwIDE1Ljg3MiA3LjE2OCAxNS44NzIgMTUuODcyUzU4Ni43NTIgNTc2IDU3OC4wNDggNTc2aC04MC4zODR2NjRoNDguMTI4YzguNzA0IDAgMTUuODcyIDcuMTY4IDE1Ljg3MiAxNS44NzJzLTcuMTY4IDE1Ljg3Mi0xNS44NzIgMTUuODcyaC00OC4xMjh2NzkuODcyYzAgOC43MDQtNy4xNjggMTUuODcyLTE1Ljg3MiAxNS44NzJzLTE1Ljg3Mi03LjE2OC0xNS44NzItMTUuODcydi0xOTJjMC04LjcwNCA3LjE2OC0xNS44NzIgMTUuODcyLTE1Ljg3Mmg5Ni4yNTZ6TTM1MC43MiA1NzZoLTMxLjc0NHYxNTkuNzQ0aDMxLjc0NGMxNy40MDggMCAzMS4yMzItMTMuODI0IDMxLjc0NC0zMC43MnYtOTcuMjhDMzgyLjk3NiA1OTAuMzM2IDM2OC42NCA1NzYgMzUwLjcyIDU3NnpNMTkyIDU3NmMxNy45MiAwIDMxLjc0NCAxNC4zMzYgMzEuNzQ0IDMxLjc0NFMyMDkuOTIgNjQwIDE5MiA2NDBoLTMxLjc0NHYtNjRIMTkyeiIvPjwvc3ZnPg==;" vertex="1" parent="1">
          <mxGeometry x="-857" y="160" width="30" height="30" as="geometry" />
        </mxCell>
        <mxCell id="7SKIFd48QXLSBfqfKtb0-30" value="" style="shape=image;verticalLabelPosition=bottom;labelBackgroundColor=default;verticalAlign=top;aspect=fixed;imageAspect=0;editableCssRules=.*;image=data:image/svg+xml,PHN2ZyB4bWxuczp4bGluaz0iaHR0cDovL3d3dy53My5vcmcvMTk5OS94bGluayIgeG1sbnM9Imh0dHA6Ly93d3cudzMub3JnLzIwMDAvc3ZnIiBoZWlnaHQ9IjE4OC44NjY2NjI5NzkxMjU5OCIgd2lkdGg9IjE3Mi43MzMzMzA3MjY2MjM1NCIgdmVyc2lvbj0iMS4xIiB2aWV3Qm94PSI2Ny41ODM5OTk2MzM3ODkwNiAyNy45ODkzMzAyOTE3NDgwNDcgODg0LjM5NDY1MzMyMDMxMjUgOTY2Ljk5NzMxNDQ1MzEyNSIgY2xhc3M9Imljb24iPjxwYXRoIGZpbGw9IiM3Q0NERkYiIGQ9Ik05MjMuMTM2IDk2OS41NTczMzNIMTkzLjAyNHYtOTA5LjY1MzMzM2g1MjEuMzg2NjY3bDIwOC43MjUzMzMgMjA3LjcwMTMzM3oiLz48cGF0aCBmaWxsPSIjNDE5MUZCIiBkPSJNMzc5LjA1MDY2NyA2OC4wOTZoNzIuMDIxMzMzdjg3LjcyMjY2N2gtNzIuMDIxMzMzek00NTkuMDkzMzMzIDE2Ni41NzA2NjdoNTcuODU2VjI1NC4yOTMzMzNINDU5LjA5MzMzM3pNMzk0LjA2OTMzMyAyNjUuMDQ1MzMzaDU3Ljg1NnY4Ny43MjI2NjdoLTU3Ljg1NnpNNDU5LjA5MzMzMyAzNjMuMzQ5MzMzaDU3Ljg1NnY4Ny43MjI2NjdINDU5LjA5MzMzM3pNMzk0LjA2OTMzMyA0NjEuODI0aDU3Ljg1NlY1NDkuNTQ2NjY3aC01Ny44NTZ6Ii8+PHBhdGggZmlsbD0iIzQxOTFGQiIgZD0iTTU3Ny4zNjUzMzMgNzU2LjczNmwtNDAuNjE4NjY2LTE3NC4yNTA2NjdoLTAuMTcwNjY3Yy0zLjA3Mi00Ni45MzMzMzMtMzguNC04NC4xMzg2NjctODEuNTc4NjY3LTg0LjEzODY2Ni00NC4zNzMzMzMgMC04MC4zODQgMzguOTEyLTgxLjc0OTMzMyA4Ny41NTJoLTAuMTcwNjY3bC00MS44MTMzMzMgMTc1LjYxNnYwLjE3MDY2NmMtMS43MDY2NjcgNi40ODUzMzMtMi41NiAxMy4xNDEzMzMtMi41NiAyMC4xMzg2NjcgMCA1NS40NjY2NjcgNTYuNDkwNjY3IDEwMC41MjI2NjcgMTI2LjI5MzMzMyAxMDAuNTIyNjY3czEyNi4yOTMzMzMtNDUuMDU2IDEyNi4yOTMzMzQtMTAwLjUyMjY2N2MwLTguODc0NjY3LTEuMzY1MzMzLTE3LjIzNzMzMy0zLjkyNTMzNC0yNS4wODh6IG0tMTIyLjM2OCA0OS44MzQ2NjdjLTM2LjE4MTMzMyAwLTY1LjUzNi0xNy41Nzg2NjctNjUuNTM2LTM5LjI1MzMzNHMyOS4zNTQ2NjctMzkuMjUzMzMzIDY1LjUzNi0zOS4yNTMzMzMgNjUuNTM2IDE3LjU3ODY2NyA2NS41MzYgMzkuMjUzMzMzLTI5LjM1NDY2NyAzOS4yNTMzMzMtNjUuNTM2IDM5LjI1MzMzNHoiLz48cGF0aCBmaWxsPSIjNDE5MUZCIiBkPSJNOTEyLjg5NiAyNTMuOTUybDIuNTYgNjcxLjkxNDY2N2MwIDE1LjUzMDY2Ny0xMi40NTg2NjcgMjcuOTg5MzMzLTI3Ljk4OTMzMyAyNy45ODkzMzNIMjM3LjkwOTMzM2MtMTUuNTMwNjY3IDAtMjcuOTg5MzMzLTEyLjQ1ODY2Ny0yNy45ODkzMzMtMjcuOTg5MzMzVjk2LjkzODY2N2MwLTE1LjUzMDY2NyAxMi40NTg2NjctMjcuOTg5MzMzIDI3Ljk4OTMzMy0yNy45ODkzMzRsNDkzLjM5NzMzNC0xLjAyNC0zOC45MTItMzkuOTM2SDIzOS4yNzQ2NjdjLTM2LjM1MiAwLTY1LjcwNjY2NyAyOS4zNTQ2NjctNjUuNzA2NjY3IDY1LjcwNjY2N3Y4MzUuNTg0YzAgMzYuMzUyIDI5LjM1NDY2NyA2NS43MDY2NjcgNjUuNzA2NjY3IDY1LjcwNjY2N2g2NDYuODI2NjY2YzM2LjM1MiAwIDY1LjcwNjY2Ny0yOS4zNTQ2NjcgNjUuNzA2NjY3LTY1LjcwNjY2N1YyOTMuODg4bC0zOC45MTItMzkuOTM2eiIvPjxwYXRoIGZpbGw9IiNDN0UyRkYiIGQ9Ik02OTIuMzk0NjY3IDIyMi43MmMwIDM5LjQyNCAzMS45MTQ2NjcgNzEuMzM4NjY3IDcxLjMzODY2NiA3MS4zMzg2NjdoMTg4LjI0NTMzNEw2OTIuMzk0NjY3IDI3Ljk4OTMzM3YxOTQuNzMwNjY3eiIvPjxwYXRoIGZpbGw9IiM0MTkxRkIiIGQ9Ik01NTcuNTY4IDQ4Mi4zMDRIMTU4LjcyYy01MC4zNDY2NjcgMC05MS4xMzYtNDAuNzg5MzMzLTkxLjEzNi05MS4xMzZ2LTYwLjI0NTMzM2MwLTUwLjM0NjY2NyA0MC43ODkzMzMtOTEuMTM2IDkxLjEzNi05MS4xMzZoMzk4Ljg0OGM1MC4zNDY2NjcgMCA5MS4xMzYgNDAuNzg5MzMzIDkxLjEzNiA5MS4xMzZ2NjAuMjQ1MzMzYzAgNTAuMzQ2NjY3LTQwLjc4OTMzMyA5MS4xMzYtOTEuMTM2IDkxLjEzNnoiLz48cGF0aCBmaWxsPSIjRkZGRkZGIiBkPSJNMTc0LjkzMzMzMyAyODcuNTczMzMzaDEzNi4xOTJ2MzEuMDYxMzM0bC04Ny4zODEzMzMgOTEuMTM2aDkwLjYyNHYzMy40NTA2NjZIMTY2LjU3MDY2N3YtMzIuMjU2bDg2LjUyOC05MC4xMTJoLTc4LjE2NTMzNHYtMzMuMjh6TTMzNy45MiAyODcuNTczMzMzaDQ4LjI5ODY2N3YxNTUuODE4NjY3SDMzNy45MnYtMTU1LjgxODY2N3pNNDIwLjUyMjY2NyAyODcuNTczMzMzaDgwLjA0MjY2NmMxNy40MDggMCAzMC41NDkzMzMgNC4wOTYgMzkuMDgyNjY3IDEyLjQ1ODY2NyA4LjcwNCA4LjM2MjY2NyAxMi45NzA2NjcgMjAuMTM4NjY3IDEyLjk3MDY2NyAzNS4zMjggMCAxNS43MDEzMzMtNC43Nzg2NjcgMjcuOTg5MzMzLTE0LjE2NTMzNCAzNi44NjQtOS4zODY2NjcgOC44NzQ2NjctMjMuODkzMzMzIDEzLjMxMi00My4zNDkzMzMgMTMuMzEyaC0yNi4yODI2Njd2NTcuODU2aC00OC4yOTg2NjZ2LTE1NS44MTg2Njd6IG00OC4yOTg2NjYgNjYuMzg5MzM0aDExLjc3NmM5LjIxNiAwIDE1Ljg3Mi0xLjUzNiAxOS42MjY2NjctNC43Nzg2NjcgMy43NTQ2NjctMy4yNDI2NjcgNS42MzItNy4zMzg2NjcgNS42MzItMTIuNDU4NjY3IDAtNC45NDkzMzMtMS43MDY2NjctOS4wNDUzMzMtNC45NDkzMzMtMTIuNDU4NjY2cy05LjM4NjY2Ny01LjEyLTE4LjQzMi01LjEyaC0xMy42NTMzMzR2MzQuODE2eiIvPjwvc3ZnPg==;" vertex="1" parent="1">
          <mxGeometry x="-490" y="160" width="32.03" height="35" as="geometry" />
        </mxCell>
        <mxCell id="7SKIFd48QXLSBfqfKtb0-35" value="&lt;b&gt;结束&lt;/b&gt;" style="rounded=1;whiteSpace=wrap;html=1;fillColor=#dae8fc;strokeColor=#6c8ebf;" vertex="1" parent="1">
          <mxGeometry x="-720" y="800" width="80" height="30" as="geometry" />
        </mxCell>
        <mxCell id="7SKIFd48QXLSBfqfKtb0-50" style="edgeStyle=orthogonalEdgeStyle;rounded=0;orthogonalLoop=1;jettySize=auto;html=1;" edge="1" parent="1" source="7SKIFd48QXLSBfqfKtb0-48" target="7SKIFd48QXLSBfqfKtb0-49">
          <mxGeometry relative="1" as="geometry" />
        </mxCell>
        <mxCell id="7SKIFd48QXLSBfqfKtb0-48" value="新增SystemFile-zip" style="rounded=1;whiteSpace=wrap;html=1;fillColor=#F8CECC;" vertex="1" parent="1">
          <mxGeometry x="-473" y="259" width="120" height="40" as="geometry" />
        </mxCell>
        <mxCell id="7SKIFd48QXLSBfqfKtb0-52" style="edgeStyle=orthogonalEdgeStyle;rounded=0;orthogonalLoop=1;jettySize=auto;html=1;" edge="1" parent="1" source="7SKIFd48QXLSBfqfKtb0-49" target="7SKIFd48QXLSBfqfKtb0-51">
          <mxGeometry relative="1" as="geometry" />
        </mxCell>
        <mxCell id="7SKIFd48QXLSBfqfKtb0-49" value="解压文件&lt;span style=&quot;color: rgba(0, 0, 0, 0); font-family: monospace; font-size: 0px; text-align: start; text-wrap-mode: nowrap;&quot;&gt;%3CmxGraphModel%3E%3Croot%3E%3CmxCell%20id%3D%220%22%2F%3E%3CmxCell%20id%3D%221%22%20parent%3D%220%22%2F%3E%3CmxCell%20id%3D%222%22%20value%3D%22%E8%A7%A3%E5%8E%8B%E6%96%87%E4%BB%B6%22%20style%3D%22rounded%3D1%3BwhiteSpace%3Dwrap%3Bhtml%3D1%3B%22%20vertex%3D%221%22%20parent%3D%221%22%3E%3CmxGeometry%20x%3D%22-900%22%20y%3D%22260%22%20width%3D%22120%22%20height%3D%2240%22%20as%3D%22geometry%22%2F%3E%3C%2FmxCell%3E%3C%2Froot%3E%3C%2FmxGraphModel%3E&lt;/span&gt;" style="rounded=1;whiteSpace=wrap;html=1;" vertex="1" parent="1">
          <mxGeometry x="-473" y="329" width="120" height="40" as="geometry" />
        </mxCell>
        <mxCell id="7SKIFd48QXLSBfqfKtb0-56" style="edgeStyle=orthogonalEdgeStyle;rounded=0;orthogonalLoop=1;jettySize=auto;html=1;" edge="1" parent="1" source="7SKIFd48QXLSBfqfKtb0-51" target="7SKIFd48QXLSBfqfKtb0-54">
          <mxGeometry relative="1" as="geometry" />
        </mxCell>
        <mxCell id="7SKIFd48QXLSBfqfKtb0-51" value="将子文件专题SystemFIle对象" style="rounded=1;whiteSpace=wrap;html=1;" vertex="1" parent="1">
          <mxGeometry x="-473" y="399" width="120" height="40" as="geometry" />
        </mxCell>
        <mxCell id="7SKIFd48QXLSBfqfKtb0-57" style="edgeStyle=orthogonalEdgeStyle;rounded=0;orthogonalLoop=1;jettySize=auto;html=1;" edge="1" parent="1" source="7SKIFd48QXLSBfqfKtb0-54" target="7SKIFd48QXLSBfqfKtb0-55">
          <mxGeometry relative="1" as="geometry" />
        </mxCell>
        <mxCell id="7SKIFd48QXLSBfqfKtb0-54" value="新增SystemFile-doc" style="rounded=1;whiteSpace=wrap;html=1;fillColor=#F8CECC;" vertex="1" parent="1">
          <mxGeometry x="-473" y="469" width="120" height="40" as="geometry" />
        </mxCell>
        <mxCell id="7SKIFd48QXLSBfqfKtb0-55" value="新增文件专题关联关系&lt;br&gt;MAP_FILE_THEME_FILE" style="rounded=1;whiteSpace=wrap;html=1;fillColor=#D5E8D4;" vertex="1" parent="1">
          <mxGeometry x="-495.5" y="539" width="165" height="40" as="geometry" />
        </mxCell>
        <mxCell id="7SKIFd48QXLSBfqfKtb0-62" style="edgeStyle=orthogonalEdgeStyle;rounded=0;orthogonalLoop=1;jettySize=auto;html=1;" edge="1" parent="1" source="7SKIFd48QXLSBfqfKtb0-58" target="7SKIFd48QXLSBfqfKtb0-61">
          <mxGeometry relative="1" as="geometry" />
        </mxCell>
        <mxCell id="7SKIFd48QXLSBfqfKtb0-58" value="删除SystemFile-zip" style="rounded=1;whiteSpace=wrap;html=1;fillColor=#F8CECC;" vertex="1" parent="1">
          <mxGeometry x="-473" y="629" width="120" height="40" as="geometry" />
        </mxCell>
        <mxCell id="7SKIFd48QXLSBfqfKtb0-69" style="edgeStyle=orthogonalEdgeStyle;rounded=0;orthogonalLoop=1;jettySize=auto;html=1;" edge="1" parent="1" source="7SKIFd48QXLSBfqfKtb0-61" target="7SKIFd48QXLSBfqfKtb0-35">
          <mxGeometry relative="1" as="geometry">
            <Array as="points">
              <mxPoint x="-413" y="760" />
              <mxPoint x="-680" y="760" />
            </Array>
          </mxGeometry>
        </mxCell>
        <mxCell id="7SKIFd48QXLSBfqfKtb0-61" value="删除本地压缩包" style="rounded=1;whiteSpace=wrap;html=1;fillColor=none;" vertex="1" parent="1">
          <mxGeometry x="-473" y="709" width="120" height="40" as="geometry" />
        </mxCell>
      </root>
    </mxGraphModel>
  </diagram>
</mxfile>
